<?xml version="1.0" encoding="utf-8"?>
<!-- Generator: Adobe Illustrator 22.0.1, SVG Export Plug-In . SVG Version: 6.00 Build 0)  -->
<svg version="1.1" xmlns="http://www.w3.org/2000/svg" xmlns:xlink="http://www.w3.org/1999/xlink" x="0px" y="0px"
	 viewBox="0 0 2000 2000" style="enable-background:new 0 0 2000 2000;" xml:space="preserve">
<style type="text/css">
	.st0{fill:#1E1E1E;}
	.st1{fill:none;stroke:#FA1516;stroke-width:34;}
	.st2{fill:none;stroke:#16D41A;stroke-width:34;}
	.st3{fill:none;stroke:#FB16BB;stroke-width:34;}
	.st4{fill:none;stroke:#FCFC17;stroke-width:34;}
</style>
<g id="Layer_1">
	<rect x="-0.5" y="-0.5" class="st0" width="2000" height="2000"/>
</g>
<g id="Layer_2">
</g>
<g id="Layer_3">
	<g id="Layer_1_1_">
		<path d="M-179.2,469.6l1640.4-874.9L2324,1235.1L695.7,2110L-179.2,469.6z"/>
		<g>
			<path class="st1" d="M379.8,1162.2L63.8,578.9l826.3,194.4L574.2,190.1"/>
			<path class="st2" d="M756.5,1939.9l291.6-972.1"/>
			<path class="st2" d="M1376.2,1611.8l-960-303.8"/>
			<path class="st3" d="M1169.6,931.3l680.5-364.5"/>
			<path class="st3" d="M1509.9,749.1l340.2,631.9"/>
			<path class="st4" d="M1619.2,238.7c0,145.8-72.9,279.5-194.4,340.2c-194.4,97.2-425.3,12.2-510.4-182.3
				c-72.9-170.1,0-364.5,158-461.8c170.1-85.1,376.7-36.5,486.1,121.5l-644,340.2"/>
		</g>
		<path d="M-325,1429.5l145.8-874.9l826.3,1567.5l-194.4,765.5L-325,1429.5z"/>
		<path d="M720,2134.3L501.3,2912l1518.9-814.1l291.6-802L720,2134.3z"/>
	</g>
</g>
</svg>
